<svg width="11" height="22" viewBox="0 0 11 22" fill="none" xmlns="http://www.w3.org/2000/svg">
<path d="M2.54117 4.91938C2.54117 5.44991 2.54117 7.8179 2.54117 7.8179H0.313416V11.3622H2.54117V21.8947H7.11747V11.3625H10.1884C10.1884 11.3625 10.476 9.66305 10.6154 7.80484C10.2157 7.80484 7.13477 7.80484 7.13477 7.80484C7.13477 7.80484 7.13477 5.74286 7.13477 5.38143C7.13477 5.01923 7.63373 4.53201 8.12688 4.53201C8.61911 4.53201 9.65799 4.53201 10.6202 4.53201C10.6202 4.04945 10.6202 2.38208 10.6202 0.842163C9.33568 0.842163 7.87429 0.842163 7.23013 0.842163C2.42805 0.841918 2.54117 4.38977 2.54117 4.91938Z" fill="white"/>
</svg>
