<svg width="27" height="15" viewBox="0 0 27 15" fill="none" xmlns="http://www.w3.org/2000/svg">
<path d="M26.4004 13.126C26.3683 13.0601 26.3384 13.0054 26.3106 12.9616C25.8508 12.1721 24.9721 11.2032 23.675 10.0544L23.6476 10.0281L23.6339 10.0152L23.62 10.002H23.6061C23.0174 9.46706 22.6446 9.10739 22.4885 8.92324C22.2029 8.57246 22.1389 8.2174 22.295 7.85763C22.4053 7.58581 22.8196 7.01178 23.5369 6.13473C23.9143 5.66992 24.2131 5.2974 24.4338 5.01674C26.0254 2.99977 26.7154 1.7109 26.5037 1.14962L26.4215 1.01846C26.3663 0.939492 26.2237 0.867253 25.994 0.801372C25.7637 0.735629 25.4694 0.724757 25.1106 0.76857L21.1366 0.794738C21.0722 0.772993 20.9803 0.77502 20.8605 0.801372C20.7409 0.827724 20.681 0.840947 20.681 0.840947L20.6119 0.873887L20.557 0.913462C20.511 0.93963 20.4604 0.985655 20.4051 1.05144C20.3502 1.117 20.3042 1.19394 20.2675 1.28161C19.8348 2.34266 19.3429 3.32917 18.7908 4.24109C18.4504 4.78486 18.1378 5.25612 17.8523 5.65514C17.5672 6.05401 17.328 6.3479 17.135 6.53628C16.9416 6.72485 16.7672 6.87591 16.6105 6.99003C16.454 7.10419 16.3346 7.15243 16.2519 7.13478C16.169 7.11714 16.091 7.09963 16.0171 7.08212C15.8884 7.00316 15.7848 6.89577 15.7068 6.75986C15.6284 6.62395 15.5756 6.45289 15.548 6.24682C15.5205 6.04061 15.5043 5.86324 15.4997 5.71411C15.4954 5.56516 15.4973 5.35448 15.5067 5.08266C15.5162 4.81071 15.5205 4.6267 15.5205 4.53023C15.5205 4.19696 15.5274 3.83526 15.541 3.44504C15.555 3.05482 15.5662 2.74564 15.5756 2.51787C15.585 2.28987 15.5894 2.04864 15.5894 1.79433C15.5894 1.54002 15.5731 1.34058 15.541 1.19583C15.5093 1.05126 15.4607 0.910928 15.3965 0.774881C15.332 0.638973 15.2376 0.53384 15.1136 0.459206C14.9895 0.384664 14.8351 0.325509 14.6514 0.281558C14.1638 0.176379 13.5429 0.119482 12.7884 0.110636C11.0774 0.0931294 9.978 0.198446 9.49043 0.42645C9.29725 0.522783 9.12243 0.654407 8.96613 0.820906C8.8005 1.0139 8.7774 1.11921 8.89697 1.13654C9.44901 1.21536 9.83982 1.40393 10.0698 1.70205L10.1527 1.86003C10.2172 1.97401 10.2816 2.1758 10.346 2.46512C10.4103 2.75444 10.4518 3.07449 10.4701 3.42509C10.516 4.06533 10.516 4.61339 10.4701 5.0693C10.424 5.5254 10.3805 5.88047 10.339 6.13478C10.2975 6.38909 10.2355 6.59516 10.1527 6.75295C10.0698 6.91079 10.0147 7.00726 9.98703 7.04227C9.95944 7.07729 9.93643 7.09936 9.91816 7.10802C9.79859 7.15169 9.67423 7.17394 9.54553 7.17394C9.41663 7.17394 9.26032 7.11249 9.07637 6.98966C8.89247 6.86684 8.70161 6.69813 8.50379 6.48325C8.30597 6.26833 8.08287 5.968 7.8344 5.58221C7.58612 5.19641 7.32852 4.74045 7.06173 4.21433L6.841 3.83277C6.70301 3.5873 6.51452 3.22989 6.27533 2.76084C6.03599 2.29162 5.82444 1.83773 5.64054 1.39928C5.56703 1.21513 5.45659 1.07494 5.30942 0.978468L5.24036 0.938893C5.19444 0.903879 5.12074 0.8667 5.01963 0.827079C4.91837 0.787505 4.81272 0.759125 4.70223 0.741664L0.921315 0.767833C0.534953 0.767833 0.272804 0.851266 0.134769 1.0179L0.0795263 1.09673C0.0519291 1.14064 0.0380096 1.21075 0.0380096 1.30727C0.0380096 1.40374 0.0656069 1.52215 0.12085 1.66234C0.672795 2.89887 1.27302 4.09141 1.92153 5.24013C2.57004 6.38886 3.13359 7.31418 3.61183 8.01528C4.09017 8.71689 4.57773 9.37906 5.07453 10.0015C5.57133 10.6241 5.90018 11.0231 6.06107 11.1984C6.22216 11.3741 6.34869 11.5054 6.44067 11.593L6.78571 11.9087C7.00648 12.1192 7.33069 12.3713 7.75847 12.665C8.18635 12.9588 8.66005 13.2482 9.1798 13.5334C9.69966 13.8181 10.3044 14.0505 10.9945 14.2302C11.6844 14.4102 12.3559 14.4823 13.0091 14.4475H14.596C14.9179 14.421 15.1617 14.3246 15.3274 14.1581L15.3823 14.0921C15.4192 14.0398 15.4538 13.9585 15.4857 13.8491C15.518 13.7395 15.534 13.6187 15.534 13.4874C15.5246 13.1104 15.5547 12.7706 15.6235 12.4681C15.6923 12.1657 15.7707 11.9377 15.8584 11.7841C15.946 11.6307 16.0449 11.5013 16.1549 11.3963C16.2652 11.2911 16.3438 11.2274 16.3899 11.2055C16.4358 11.1834 16.4723 11.1684 16.4999 11.1595C16.7207 11.0893 16.9805 11.1572 17.2798 11.3635C17.5788 11.5696 17.8593 11.824 18.1216 12.1264C18.3838 12.4291 18.6989 12.7687 19.0668 13.1457C19.4349 13.5228 19.7568 13.8032 20.0327 13.9876L20.3085 14.1454C20.4928 14.2507 20.732 14.3472 21.0264 14.4349C21.3203 14.5225 21.5778 14.5444 21.7989 14.5006L25.3313 14.4481C25.6807 14.4481 25.9526 14.393 26.1454 14.2836C26.3387 14.174 26.4535 14.0532 26.4905 13.9219C26.5274 13.7904 26.5294 13.6412 26.4975 13.4744C26.4648 13.3081 26.4325 13.1917 26.4004 13.126Z" fill="white"/>
</svg>
